<?xml version="1.0" encoding="UTF-8" standalone="no"?>
<!DOCTYPE svg PUBLIC "-//W3C//DTD SVG 1.1//EN"
 "http://www.w3.org/Graphics/SVG/1.1/DTD/svg11.dtd">
<!-- Generated by graphviz version 2.42.4 (0)
 -->
<!-- Title: PartD Pages: 1 -->
<svg width="887pt" height="357pt"
 viewBox="0.00 0.00 887.27 357.00" xmlns="http://www.w3.org/2000/svg" xmlns:xlink="http://www.w3.org/1999/xlink">
<g id="graph0" class="graph" transform="scale(1 1) rotate(0) translate(4 353)">
<title>PartD</title>
<polygon fill="white" stroke="transparent" points="-4,4 -4,-353 883.27,-353 883.27,4 -4,4"/>
<text text-anchor="middle" x="439.64" y="-329" font-family="Arial" font-size="20.00">Part D &#45; Question Sourcing Integration</text>
<!-- QuestionSource -->
<g id="node1" class="node">
<title>QuestionSource</title>
<polygon fill="#f8f8f8" stroke="#333333" points="291.27,-135 291.27,-195 470.27,-195 470.27,-135 291.27,-135"/>
<text text-anchor="middle" x="380.77" y="-183" font-family="Arial" font-size="10.00">&lt;&lt;interface&gt;&gt;</text>
<text text-anchor="middle" x="380.77" y="-172" font-family="Arial" font-size="10.00">QuestionSource</text>
<polyline fill="none" stroke="#333333" points="291.27,-165 470.27,-165 "/>
<text text-anchor="start" x="299.27" y="-153" font-family="Arial" font-size="10.00">+ getQuestion(type: String): Question</text>
<text text-anchor="start" x="299.27" y="-142" font-family="Arial" font-size="10.00">+ getSourceName(): String</text>
</g>
<!-- BankQuestionSource -->
<g id="node2" class="node">
<title>BankQuestionSource</title>
<polygon fill="#f8f8f8" stroke="#333333" points="75.27,-258.5 75.27,-318.5 254.27,-318.5 254.27,-258.5 75.27,-258.5"/>
<text text-anchor="middle" x="164.77" y="-306.5" font-family="Arial" font-size="10.00">BankQuestionSource</text>
<polyline fill="none" stroke="#333333" points="75.27,-299.5 254.27,-299.5 "/>
<text text-anchor="start" x="83.27" y="-287.5" font-family="Arial" font-size="10.00">&#45; questionBank: QuestionBank</text>
<text text-anchor="start" x="83.27" y="-276.5" font-family="Arial" font-size="10.00">+ getQuestion(type: String): Question</text>
<text text-anchor="start" x="83.27" y="-265.5" font-family="Arial" font-size="10.00">+ getSourceName(): String</text>
</g>
<!-- BankQuestionSource&#45;&gt;QuestionSource -->
<g id="edge1" class="edge">
<title>BankQuestionSource&#45;&gt;QuestionSource</title>
<path fill="none" stroke="#333333" stroke-dasharray="5,2" d="M216.51,-258.4C247.65,-240.88 287.46,-218.49 320.08,-200.14"/>
<polygon fill="none" stroke="#333333" points="322.08,-203.03 329.08,-195.08 318.65,-196.93 322.08,-203.03"/>
</g>
<!-- QuestionBank -->
<g id="node5" class="node">
<title>QuestionBank</title>
<polygon fill="#f8f8f8" stroke="#333333" points="56.77,-118.5 56.77,-211.5 272.77,-211.5 272.77,-118.5 56.77,-118.5"/>
<text text-anchor="middle" x="164.77" y="-199.5" font-family="Arial" font-size="10.00">QuestionBank</text>
<polyline fill="none" stroke="#333333" points="56.77,-192.5 272.77,-192.5 "/>
<text text-anchor="start" x="64.77" y="-180.5" font-family="Arial" font-size="10.00">&#45; random: Random</text>
<text text-anchor="start" x="64.77" y="-169.5" font-family="Arial" font-size="10.00">&#45; mcqQuestions: Question[]</text>
<text text-anchor="start" x="64.77" y="-158.5" font-family="Arial" font-size="10.00">&#45; essayQuestions: Question[]</text>
<text text-anchor="start" x="64.77" y="-147.5" font-family="Arial" font-size="10.00">&#45; programmingQuestions: Question[]</text>
<text text-anchor="start" x="64.77" y="-136.5" font-family="Arial" font-size="10.00">&#45; trueFalseQuestions: Question[]</text>
<text text-anchor="start" x="64.77" y="-125.5" font-family="Arial" font-size="10.00">+ getRandomQuestion(type: String): Question</text>
</g>
<!-- BankQuestionSource&#45;&gt;QuestionBank -->
<g id="edge4" class="edge">
<title>BankQuestionSource&#45;&gt;QuestionBank</title>
<path fill="none" stroke="#333333" d="M164.77,-258.4C164.77,-247.43 164.77,-234.55 164.77,-221.95"/>
<polygon fill="#333333" stroke="#333333" points="168.27,-221.95 164.77,-211.95 161.27,-221.95 168.27,-221.95"/>
<text text-anchor="middle" x="174.77" y="-232.8" font-family="Arial" font-size="9.00">uses</text>
</g>
<!-- Question -->
<g id="node7" class="node">
<title>Question</title>
<polygon fill="#f8f8f8" stroke="#333333" points="531.77,-0.5 531.77,-71.5 647.77,-71.5 647.77,-0.5 531.77,-0.5"/>
<text text-anchor="middle" x="589.77" y="-59.5" font-family="Arial" font-size="10.00">&lt;&lt;interface&gt;&gt;</text>
<text text-anchor="middle" x="589.77" y="-48.5" font-family="Arial" font-size="10.00">Question</text>
<polyline fill="none" stroke="#333333" points="531.77,-41.5 647.77,-41.5 "/>
<text text-anchor="start" x="539.77" y="-29.5" font-family="Arial" font-size="10.00">+ getType(): String</text>
<text text-anchor="start" x="539.77" y="-18.5" font-family="Arial" font-size="10.00">+ getPoints(): int</text>
<text text-anchor="start" x="539.77" y="-7.5" font-family="Arial" font-size="10.00">+ getDifficulty(): String</text>
</g>
<!-- BankQuestionSource&#45;&gt;Question -->
<g id="edge6" class="edge">
<title>BankQuestionSource&#45;&gt;Question</title>
<path fill="none" stroke="#333333" stroke-dasharray="5,2" d="M75.15,-260.15C52.92,-248.9 31.75,-233.33 18.77,-212 -2.95,-176.31 -8.62,-149.55 18.77,-118 83.14,-43.85 384.06,-35.78 521.27,-36.05"/>
<polygon fill="#333333" stroke="#333333" points="521.64,-39.55 531.65,-36.09 521.67,-32.55 521.64,-39.55"/>
<text text-anchor="middle" x="33.27" y="-162.8" font-family="Arial" font-size="9.00">returns</text>
</g>
<!-- FakerQuestionSource -->
<g id="node3" class="node">
<title>FakerQuestionSource</title>
<polygon fill="#f8f8f8" stroke="#333333" points="500.27,-258.5 500.27,-318.5 679.27,-318.5 679.27,-258.5 500.27,-258.5"/>
<text text-anchor="middle" x="589.77" y="-306.5" font-family="Arial" font-size="10.00">FakerQuestionSource</text>
<polyline fill="none" stroke="#333333" points="500.27,-299.5 679.27,-299.5 "/>
<text text-anchor="start" x="508.27" y="-287.5" font-family="Arial" font-size="10.00">&#45; faker: QuestionFaker</text>
<text text-anchor="start" x="508.27" y="-276.5" font-family="Arial" font-size="10.00">+ getQuestion(type: String): Question</text>
<text text-anchor="start" x="508.27" y="-265.5" font-family="Arial" font-size="10.00">+ getSourceName(): String</text>
</g>
<!-- FakerQuestionSource&#45;&gt;QuestionSource -->
<g id="edge2" class="edge">
<title>FakerQuestionSource&#45;&gt;QuestionSource</title>
<path fill="none" stroke="#333333" stroke-dasharray="5,2" d="M539.71,-258.4C509.57,-240.88 471.06,-218.49 439.49,-200.14"/>
<polygon fill="none" stroke="#333333" points="441.19,-197.08 430.78,-195.08 437.67,-203.13 441.19,-197.08"/>
</g>
<!-- QuestionFaker -->
<g id="node6" class="node">
<title>QuestionFaker</title>
<polygon fill="#f8f8f8" stroke="#333333" points="488.27,-146 488.27,-184 691.27,-184 691.27,-146 488.27,-146"/>
<text text-anchor="middle" x="589.77" y="-172" font-family="Arial" font-size="10.00">QuestionFaker</text>
<polyline fill="none" stroke="#333333" points="488.27,-165 691.27,-165 "/>
<text text-anchor="start" x="496.27" y="-153" font-family="Arial" font-size="10.00">+ generateQuestion(type: String): Question</text>
</g>
<!-- FakerQuestionSource&#45;&gt;QuestionFaker -->
<g id="edge5" class="edge">
<title>FakerQuestionSource&#45;&gt;QuestionFaker</title>
<path fill="none" stroke="#333333" d="M589.77,-258.4C589.77,-239.06 589.77,-213.78 589.77,-194.56"/>
<polygon fill="#333333" stroke="#333333" points="593.27,-194.3 589.77,-184.3 586.27,-194.3 593.27,-194.3"/>
<text text-anchor="middle" x="599.77" y="-232.8" font-family="Arial" font-size="9.00">uses</text>
</g>
<!-- FakerQuestionSource&#45;&gt;Question -->
<g id="edge7" class="edge">
<title>FakerQuestionSource&#45;&gt;Question</title>
<path fill="none" stroke="#333333" stroke-dasharray="5,2" d="M654.55,-258.32C672.84,-246.69 690.52,-231.36 700.77,-212 720.31,-175.07 719.7,-155.24 700.77,-118 690.97,-98.72 674.19,-82.93 656.6,-70.59"/>
<polygon fill="#333333" stroke="#333333" points="658.19,-67.44 647.93,-64.8 654.31,-73.27 658.19,-67.44"/>
<text text-anchor="middle" x="729.27" y="-162.8" font-family="Arial" font-size="9.00">returns</text>
</g>
<!-- ManualQuestionSource -->
<g id="node4" class="node">
<title>ManualQuestionSource</title>
<polygon fill="#f8f8f8" stroke="#333333" points="700.27,-264 700.27,-313 879.27,-313 879.27,-264 700.27,-264"/>
<text text-anchor="middle" x="789.77" y="-301" font-family="Arial" font-size="10.00">ManualQuestionSource</text>
<polyline fill="none" stroke="#333333" points="700.27,-294 879.27,-294 "/>
<text text-anchor="start" x="708.27" y="-282" font-family="Arial" font-size="10.00">+ getQuestion(type: String): Question</text>
<text text-anchor="start" x="708.27" y="-271" font-family="Arial" font-size="10.00">+ getSourceName(): String</text>
</g>
<!-- ManualQuestionSource&#45;&gt;QuestionSource -->
<g id="edge3" class="edge">
<title>ManualQuestionSource&#45;&gt;QuestionSource</title>
<path fill="none" stroke="#333333" stroke-dasharray="5,2" d="M727.01,-263.91C693.77,-252.2 652,-238.74 613.77,-230 555.19,-216.61 537.45,-228.85 479.77,-212 468.26,-208.64 456.39,-204.13 445.04,-199.24"/>
<polygon fill="none" stroke="#333333" points="446.21,-195.93 435.65,-195.06 443.37,-202.32 446.21,-195.93"/>
</g>
<!-- ManualQuestionSource&#45;&gt;Question -->
<g id="edge8" class="edge">
<title>ManualQuestionSource&#45;&gt;Question</title>
<path fill="none" stroke="#333333" stroke-dasharray="5,2" d="M789.65,-263.91C788.3,-228.67 781.14,-161.75 747.77,-118 725.49,-88.79 689.72,-69.22 657.84,-56.65"/>
<polygon fill="#333333" stroke="#333333" points="658.68,-53.23 648.09,-52.97 656.21,-59.78 658.68,-53.23"/>
<text text-anchor="middle" x="798.27" y="-162.8" font-family="Arial" font-size="9.00">returns</text>
</g>
<!-- QuestionBank&#45;&gt;Question -->
<g id="edge9" class="edge">
<title>QuestionBank&#45;&gt;Question</title>
<path fill="none" stroke="#333333" stroke-dasharray="5,2" d="M272.97,-120.94C275.93,-119.93 278.87,-118.95 281.77,-118 363.21,-91.38 458.91,-67.31 521.76,-52.46"/>
<polygon fill="#333333" stroke="#333333" points="522.63,-55.85 531.56,-50.15 521.03,-49.03 522.63,-55.85"/>
<text text-anchor="middle" x="402.77" y="-92.8" font-family="Arial" font-size="9.00">stores/returns</text>
</g>
<!-- QuestionFaker&#45;&gt;Question -->
<g id="edge10" class="edge">
<title>QuestionFaker&#45;&gt;Question</title>
<path fill="none" stroke="#333333" stroke-dasharray="5,2" d="M589.77,-145.8C589.77,-129.17 589.77,-103.87 589.77,-81.85"/>
<polygon fill="#333333" stroke="#333333" points="593.27,-81.69 589.77,-71.69 586.27,-81.69 593.27,-81.69"/>
<text text-anchor="middle" x="610.77" y="-92.8" font-family="Arial" font-size="9.00">generates</text>
</g>
</g>
</svg>
