<?xml version="1.0" encoding="UTF-8" standalone="no"?>
<!DOCTYPE svg PUBLIC "-//W3C//DTD SVG 1.1//EN"
 "http://www.w3.org/Graphics/SVG/1.1/DTD/svg11.dtd">
<!-- Generated by graphviz version 2.42.4 (0)
 -->
<!-- Title: PartB Pages: 1 -->
<svg width="2325pt" height="351pt"
 viewBox="0.00 0.00 2324.50 351.00" xmlns="http://www.w3.org/2000/svg" xmlns:xlink="http://www.w3.org/1999/xlink">
<g id="graph0" class="graph" transform="scale(1 1) rotate(0) translate(4 347)">
<title>PartB</title>
<polygon fill="white" stroke="transparent" points="-4,4 -4,-347 2320.5,-347 2320.5,4 -4,4"/>
<text text-anchor="middle" x="1158.25" y="-323" font-family="Arial" font-size="20.00">Part B &#45; Abstract Factory Pattern</text>
<!-- Question -->
<g id="node1" class="node">
<title>Question</title>
<polygon fill="#f8f8f8" stroke="#333333" points="1487.5,-0.5 1487.5,-66.5 1593.5,-66.5 1593.5,-0.5 1487.5,-0.5"/>
<text text-anchor="middle" x="1540.5" y="-55.3" font-family="Arial" font-size="9.00">&lt;&lt;interface&gt;&gt;</text>
<text text-anchor="middle" x="1540.5" y="-45.3" font-family="Arial" font-size="9.00">Question</text>
<polyline fill="none" stroke="#333333" points="1487.5,-38.5 1593.5,-38.5 "/>
<text text-anchor="start" x="1495.5" y="-27.3" font-family="Arial" font-size="9.00">+ getType(): String</text>
<text text-anchor="start" x="1495.5" y="-17.3" font-family="Arial" font-size="9.00">+ getPoints(): int</text>
<text text-anchor="start" x="1495.5" y="-7.3" font-family="Arial" font-size="9.00">+ getDifficulty(): String</text>
</g>
<!-- QuestionRenderer -->
<g id="node2" class="node">
<title>QuestionRenderer</title>
<polygon fill="#f8f8f8" stroke="#333333" points="507,-10.5 507,-56.5 662,-56.5 662,-10.5 507,-10.5"/>
<text text-anchor="middle" x="584.5" y="-45.3" font-family="Arial" font-size="9.00">&lt;&lt;interface&gt;&gt;</text>
<text text-anchor="middle" x="584.5" y="-35.3" font-family="Arial" font-size="9.00">QuestionRenderer</text>
<polyline fill="none" stroke="#333333" points="507,-28.5 662,-28.5 "/>
<text text-anchor="start" x="515" y="-17.3" font-family="Arial" font-size="9.00">+ render(question: Question): void</text>
</g>
<!-- QuestionEvaluator -->
<g id="node3" class="node">
<title>QuestionEvaluator</title>
<polygon fill="#f8f8f8" stroke="#333333" points="861,-10.5 861,-56.5 1080,-56.5 1080,-10.5 861,-10.5"/>
<text text-anchor="middle" x="970.5" y="-45.3" font-family="Arial" font-size="9.00">&lt;&lt;interface&gt;&gt;</text>
<text text-anchor="middle" x="970.5" y="-35.3" font-family="Arial" font-size="9.00">QuestionEvaluator</text>
<polyline fill="none" stroke="#333333" points="861,-28.5 1080,-28.5 "/>
<text text-anchor="start" x="869" y="-17.3" font-family="Arial" font-size="9.00">+ evaluate(question: Question, answer: String): int</text>
</g>
<!-- QuestionFactory -->
<g id="node4" class="node">
<title>QuestionFactory</title>
<polygon fill="#f8f8f8" stroke="#333333" points="1070,-119.5 1070,-185.5 1245,-185.5 1245,-119.5 1070,-119.5"/>
<text text-anchor="middle" x="1157.5" y="-174.3" font-family="Arial" font-size="9.00">&lt;&lt;interface&gt;&gt;</text>
<text text-anchor="middle" x="1157.5" y="-164.3" font-family="Arial" font-size="9.00">QuestionFactory</text>
<polyline fill="none" stroke="#333333" points="1070,-157.5 1245,-157.5 "/>
<text text-anchor="start" x="1078" y="-146.3" font-family="Arial" font-size="9.00">+ createQuestion(): Question</text>
<text text-anchor="start" x="1078" y="-136.3" font-family="Arial" font-size="9.00">+ createRenderer(): QuestionRenderer</text>
<text text-anchor="start" x="1078" y="-126.3" font-family="Arial" font-size="9.00">+ createEvaluator(): QuestionEvaluator</text>
</g>
<!-- MCQQuestion -->
<g id="node5" class="node">
<title>MCQQuestion</title>
<polygon fill="#f8f8f8" stroke="#333333" points="945.5,-104.5 945.5,-200.5 1051.5,-200.5 1051.5,-104.5 945.5,-104.5"/>
<text text-anchor="middle" x="998.5" y="-189.3" font-family="Arial" font-size="9.00">MCQQuestion</text>
<polyline fill="none" stroke="#333333" points="945.5,-182.5 1051.5,-182.5 "/>
<text text-anchor="start" x="953.5" y="-171.3" font-family="Arial" font-size="9.00">&#45; text: String</text>
<text text-anchor="start" x="953.5" y="-161.3" font-family="Arial" font-size="9.00">&#45; points: int</text>
<text text-anchor="start" x="953.5" y="-151.3" font-family="Arial" font-size="9.00">&#45; difficulty: String</text>
<text text-anchor="start" x="953.5" y="-141.3" font-family="Arial" font-size="9.00">+ getType(): String</text>
<text text-anchor="start" x="953.5" y="-131.3" font-family="Arial" font-size="9.00">+ getText(): String</text>
<text text-anchor="start" x="953.5" y="-121.3" font-family="Arial" font-size="9.00">+ getPoints(): int</text>
<text text-anchor="start" x="953.5" y="-111.3" font-family="Arial" font-size="9.00">+ getDifficulty(): String</text>
</g>
<!-- MCQQuestion&#45;&gt;Question -->
<g id="edge1" class="edge">
<title>MCQQuestion&#45;&gt;Question</title>
<path fill="none" stroke="#333333" stroke-dasharray="5,2" d="M1051.72,-108.69C1054.94,-106.95 1058.21,-105.37 1061.5,-104 1201.67,-45.55 1382.65,-34.99 1476.97,-33.83"/>
<polygon fill="none" stroke="#333333" points="1477.23,-37.33 1487.2,-33.74 1477.17,-30.33 1477.23,-37.33"/>
</g>
<!-- TrueFalseQuestion -->
<g id="node6" class="node">
<title>TrueFalseQuestion</title>
<polygon fill="#f8f8f8" stroke="#333333" points="2210.5,-104.5 2210.5,-200.5 2316.5,-200.5 2316.5,-104.5 2210.5,-104.5"/>
<text text-anchor="middle" x="2263.5" y="-189.3" font-family="Arial" font-size="9.00">TrueFalseQuestion</text>
<polyline fill="none" stroke="#333333" points="2210.5,-182.5 2316.5,-182.5 "/>
<text text-anchor="start" x="2218.5" y="-171.3" font-family="Arial" font-size="9.00">&#45; text: String</text>
<text text-anchor="start" x="2218.5" y="-161.3" font-family="Arial" font-size="9.00">&#45; points: int</text>
<text text-anchor="start" x="2218.5" y="-151.3" font-family="Arial" font-size="9.00">&#45; difficulty: String</text>
<text text-anchor="start" x="2218.5" y="-141.3" font-family="Arial" font-size="9.00">+ getType(): String</text>
<text text-anchor="start" x="2218.5" y="-131.3" font-family="Arial" font-size="9.00">+ getText(): String</text>
<text text-anchor="start" x="2218.5" y="-121.3" font-family="Arial" font-size="9.00">+ getPoints(): int</text>
<text text-anchor="start" x="2218.5" y="-111.3" font-family="Arial" font-size="9.00">+ getDifficulty(): String</text>
</g>
<!-- TrueFalseQuestion&#45;&gt;Question -->
<g id="edge2" class="edge">
<title>TrueFalseQuestion&#45;&gt;Question</title>
<path fill="none" stroke="#333333" stroke-dasharray="5,2" d="M2210.48,-108.14C2207.52,-106.6 2204.52,-105.2 2201.5,-104 2093.79,-61.07 1747.83,-42.71 1604.07,-36.8"/>
<polygon fill="none" stroke="#333333" points="1603.79,-33.29 1593.66,-36.38 1603.51,-40.28 1603.79,-33.29"/>
</g>
<!-- EssayQuestion -->
<g id="node7" class="node">
<title>EssayQuestion</title>
<polygon fill="#f8f8f8" stroke="#333333" points="583.5,-104.5 583.5,-200.5 689.5,-200.5 689.5,-104.5 583.5,-104.5"/>
<text text-anchor="middle" x="636.5" y="-189.3" font-family="Arial" font-size="9.00">EssayQuestion</text>
<polyline fill="none" stroke="#333333" points="583.5,-182.5 689.5,-182.5 "/>
<text text-anchor="start" x="591.5" y="-171.3" font-family="Arial" font-size="9.00">&#45; text: String</text>
<text text-anchor="start" x="591.5" y="-161.3" font-family="Arial" font-size="9.00">&#45; points: int</text>
<text text-anchor="start" x="591.5" y="-151.3" font-family="Arial" font-size="9.00">&#45; difficulty: String</text>
<text text-anchor="start" x="591.5" y="-141.3" font-family="Arial" font-size="9.00">+ getType(): String</text>
<text text-anchor="start" x="591.5" y="-131.3" font-family="Arial" font-size="9.00">+ getText(): String</text>
<text text-anchor="start" x="591.5" y="-121.3" font-family="Arial" font-size="9.00">+ getPoints(): int</text>
<text text-anchor="start" x="591.5" y="-111.3" font-family="Arial" font-size="9.00">+ getDifficulty(): String</text>
</g>
<!-- EssayQuestion&#45;&gt;Question -->
<g id="edge3" class="edge">
<title>EssayQuestion&#45;&gt;Question</title>
<path fill="none" stroke="#333333" stroke-dasharray="5,2" d="M689.62,-108.44C692.87,-106.77 696.17,-105.27 699.5,-104 717.67,-97.07 1284.32,-53.82 1477.05,-39.27"/>
<polygon fill="none" stroke="#333333" points="1477.6,-42.74 1487.31,-38.5 1477.07,-35.76 1477.6,-42.74"/>
</g>
<!-- ProgrammingQuestion -->
<g id="node8" class="node">
<title>ProgrammingQuestion</title>
<polygon fill="#f8f8f8" stroke="#333333" points="2083,-104.5 2083,-200.5 2192,-200.5 2192,-104.5 2083,-104.5"/>
<text text-anchor="middle" x="2137.5" y="-189.3" font-family="Arial" font-size="9.00">ProgrammingQuestion</text>
<polyline fill="none" stroke="#333333" points="2083,-182.5 2192,-182.5 "/>
<text text-anchor="start" x="2091" y="-171.3" font-family="Arial" font-size="9.00">&#45; text: String</text>
<text text-anchor="start" x="2091" y="-161.3" font-family="Arial" font-size="9.00">&#45; points: int</text>
<text text-anchor="start" x="2091" y="-151.3" font-family="Arial" font-size="9.00">&#45; difficulty: String</text>
<text text-anchor="start" x="2091" y="-141.3" font-family="Arial" font-size="9.00">+ getType(): String</text>
<text text-anchor="start" x="2091" y="-131.3" font-family="Arial" font-size="9.00">+ getText(): String</text>
<text text-anchor="start" x="2091" y="-121.3" font-family="Arial" font-size="9.00">+ getPoints(): int</text>
<text text-anchor="start" x="2091" y="-111.3" font-family="Arial" font-size="9.00">+ getDifficulty(): String</text>
</g>
<!-- ProgrammingQuestion&#45;&gt;Question -->
<g id="edge4" class="edge">
<title>ProgrammingQuestion&#45;&gt;Question</title>
<path fill="none" stroke="#333333" stroke-dasharray="5,2" d="M2082.81,-107.85C2080.07,-106.43 2077.29,-105.14 2074.5,-104 1990.4,-69.65 1726.26,-47.4 1603.88,-38.68"/>
<polygon fill="none" stroke="#333333" points="1603.78,-35.16 1593.55,-37.95 1603.28,-42.14 1603.78,-35.16"/>
</g>
<!-- MCQRenderer -->
<g id="node9" class="node">
<title>MCQRenderer</title>
<polygon fill="#f8f8f8" stroke="#333333" points="173,-134.5 173,-170.5 328,-170.5 328,-134.5 173,-134.5"/>
<text text-anchor="middle" x="250.5" y="-159.3" font-family="Arial" font-size="9.00">MCQRenderer</text>
<polyline fill="none" stroke="#333333" points="173,-152.5 328,-152.5 "/>
<text text-anchor="start" x="181" y="-141.3" font-family="Arial" font-size="9.00">+ render(question: Question): void</text>
</g>
<!-- MCQRenderer&#45;&gt;QuestionRenderer -->
<g id="edge5" class="edge">
<title>MCQRenderer&#45;&gt;QuestionRenderer</title>
<path fill="none" stroke="#333333" stroke-dasharray="5,2" d="M277.58,-134.42C294.13,-124.53 315.98,-112.41 336.5,-104 388.37,-82.74 448.91,-65.64 497.19,-53.72"/>
<polygon fill="none" stroke="#333333" points="498.1,-57.1 506.99,-51.33 496.44,-50.3 498.1,-57.1"/>
</g>
<!-- TrueFalseRenderer -->
<g id="node10" class="node">
<title>TrueFalseRenderer</title>
<polygon fill="#f8f8f8" stroke="#333333" points="1673,-134.5 1673,-170.5 1828,-170.5 1828,-134.5 1673,-134.5"/>
<text text-anchor="middle" x="1750.5" y="-159.3" font-family="Arial" font-size="9.00">TrueFalseRenderer</text>
<polyline fill="none" stroke="#333333" points="1673,-152.5 1828,-152.5 "/>
<text text-anchor="start" x="1681" y="-141.3" font-family="Arial" font-size="9.00">+ render(question: Question): void</text>
</g>
<!-- TrueFalseRenderer&#45;&gt;QuestionRenderer -->
<g id="edge6" class="edge">
<title>TrueFalseRenderer&#45;&gt;QuestionRenderer</title>
<path fill="none" stroke="#333333" stroke-dasharray="5,2" d="M1726.61,-134.37C1710.04,-123.5 1686.99,-110.35 1664.5,-104 1490.66,-54.94 1032.51,-81.99 852.5,-67 792.18,-61.98 724.52,-53.75 672.27,-46.83"/>
<polygon fill="none" stroke="#333333" points="672.41,-43.32 662.04,-45.47 671.49,-50.26 672.41,-43.32"/>
</g>
<!-- EssayRenderer -->
<g id="node11" class="node">
<title>EssayRenderer</title>
<polygon fill="#f8f8f8" stroke="#333333" points="0,-134.5 0,-170.5 155,-170.5 155,-134.5 0,-134.5"/>
<text text-anchor="middle" x="77.5" y="-159.3" font-family="Arial" font-size="9.00">EssayRenderer</text>
<polyline fill="none" stroke="#333333" points="0,-152.5 155,-152.5 "/>
<text text-anchor="start" x="8" y="-141.3" font-family="Arial" font-size="9.00">+ render(question: Question): void</text>
</g>
<!-- EssayRenderer&#45;&gt;QuestionRenderer -->
<g id="edge7" class="edge">
<title>EssayRenderer&#45;&gt;QuestionRenderer</title>
<path fill="none" stroke="#333333" stroke-dasharray="5,2" d="M103.14,-134.29C119.69,-123.97 142.07,-111.44 163.5,-104 274.74,-65.38 410.15,-47.93 496.83,-40.24"/>
<polygon fill="none" stroke="#333333" points="497.23,-43.72 506.89,-39.37 496.63,-36.75 497.23,-43.72"/>
</g>
<!-- ProgrammingRenderer -->
<g id="node12" class="node">
<title>ProgrammingRenderer</title>
<polygon fill="#f8f8f8" stroke="#333333" points="1263,-134.5 1263,-170.5 1418,-170.5 1418,-134.5 1263,-134.5"/>
<text text-anchor="middle" x="1340.5" y="-159.3" font-family="Arial" font-size="9.00">ProgrammingRenderer</text>
<polyline fill="none" stroke="#333333" points="1263,-152.5 1418,-152.5 "/>
<text text-anchor="start" x="1271" y="-141.3" font-family="Arial" font-size="9.00">+ render(question: Question): void</text>
</g>
<!-- ProgrammingRenderer&#45;&gt;QuestionRenderer -->
<g id="edge8" class="edge">
<title>ProgrammingRenderer&#45;&gt;QuestionRenderer</title>
<path fill="none" stroke="#333333" stroke-dasharray="5,2" d="M1316.18,-134.33C1299.62,-123.6 1276.74,-110.6 1254.5,-104 1148.99,-72.66 1117.05,-96.65 1007.5,-86 891.34,-74.7 757.72,-57.77 672.26,-46.44"/>
<polygon fill="none" stroke="#333333" points="672.71,-42.97 662.34,-45.12 671.79,-49.91 672.71,-42.97"/>
</g>
<!-- MCQEvaluator -->
<g id="node13" class="node">
<title>MCQEvaluator</title>
<polygon fill="#f8f8f8" stroke="#333333" points="708,-134.5 708,-170.5 927,-170.5 927,-134.5 708,-134.5"/>
<text text-anchor="middle" x="817.5" y="-159.3" font-family="Arial" font-size="9.00">MCQEvaluator</text>
<polyline fill="none" stroke="#333333" points="708,-152.5 927,-152.5 "/>
<text text-anchor="start" x="716" y="-141.3" font-family="Arial" font-size="9.00">+ evaluate(question: Question, answer: String): int</text>
</g>
<!-- MCQEvaluator&#45;&gt;QuestionEvaluator -->
<g id="edge9" class="edge">
<title>MCQEvaluator&#45;&gt;QuestionEvaluator</title>
<path fill="none" stroke="#333333" stroke-dasharray="5,2" d="M839.75,-134.49C864.37,-115.66 904.44,-85.02 933.74,-62.61"/>
<polygon fill="none" stroke="#333333" points="935.88,-65.38 941.69,-56.53 931.62,-59.82 935.88,-65.38"/>
</g>
<!-- TrueFalseEvaluator -->
<g id="node14" class="node">
<title>TrueFalseEvaluator</title>
<polygon fill="#f8f8f8" stroke="#333333" points="1846,-134.5 1846,-170.5 2065,-170.5 2065,-134.5 1846,-134.5"/>
<text text-anchor="middle" x="1955.5" y="-159.3" font-family="Arial" font-size="9.00">TrueFalseEvaluator</text>
<polyline fill="none" stroke="#333333" points="1846,-152.5 2065,-152.5 "/>
<text text-anchor="start" x="1854" y="-141.3" font-family="Arial" font-size="9.00">+ evaluate(question: Question, answer: String): int</text>
</g>
<!-- TrueFalseEvaluator&#45;&gt;QuestionEvaluator -->
<g id="edge10" class="edge">
<title>TrueFalseEvaluator&#45;&gt;QuestionEvaluator</title>
<path fill="none" stroke="#333333" stroke-dasharray="5,2" d="M1921.04,-134.4C1897.98,-123.77 1866.63,-110.86 1837.5,-104 1766.66,-87.31 1310.82,-56.34 1090.02,-42.07"/>
<polygon fill="none" stroke="#333333" points="1090.22,-38.57 1080.01,-41.42 1089.77,-45.56 1090.22,-38.57"/>
</g>
<!-- EssayEvaluator -->
<g id="node15" class="node">
<title>EssayEvaluator</title>
<polygon fill="#f8f8f8" stroke="#333333" points="346,-134.5 346,-170.5 565,-170.5 565,-134.5 346,-134.5"/>
<text text-anchor="middle" x="455.5" y="-159.3" font-family="Arial" font-size="9.00">EssayEvaluator</text>
<polyline fill="none" stroke="#333333" points="346,-152.5 565,-152.5 "/>
<text text-anchor="start" x="354" y="-141.3" font-family="Arial" font-size="9.00">+ evaluate(question: Question, answer: String): int</text>
</g>
<!-- EssayEvaluator&#45;&gt;QuestionEvaluator -->
<g id="edge11" class="edge">
<title>EssayEvaluator&#45;&gt;QuestionEvaluator</title>
<path fill="none" stroke="#333333" stroke-dasharray="5,2" d="M492.59,-134.4C515.73,-124.31 546.36,-111.99 574.5,-104 665.61,-78.12 771.4,-60.15 850.7,-48.97"/>
<polygon fill="none" stroke="#333333" points="851.31,-52.42 860.73,-47.58 850.34,-45.49 851.31,-52.42"/>
</g>
<!-- ProgrammingEvaluator -->
<g id="node16" class="node">
<title>ProgrammingEvaluator</title>
<polygon fill="#f8f8f8" stroke="#333333" points="1436,-134.5 1436,-170.5 1655,-170.5 1655,-134.5 1436,-134.5"/>
<text text-anchor="middle" x="1545.5" y="-159.3" font-family="Arial" font-size="9.00">ProgrammingEvaluator</text>
<polyline fill="none" stroke="#333333" points="1436,-152.5 1655,-152.5 "/>
<text text-anchor="start" x="1444" y="-141.3" font-family="Arial" font-size="9.00">+ evaluate(question: Question, answer: String): int</text>
</g>
<!-- ProgrammingEvaluator&#45;&gt;QuestionEvaluator -->
<g id="edge12" class="edge">
<title>ProgrammingEvaluator&#45;&gt;QuestionEvaluator</title>
<path fill="none" stroke="#333333" stroke-dasharray="5,2" d="M1509.32,-134.39C1486.34,-124.17 1455.73,-111.71 1427.5,-104 1315.09,-73.28 1183.17,-55.05 1090.03,-45.02"/>
<polygon fill="none" stroke="#333333" points="1090.32,-41.53 1080.01,-43.96 1089.59,-48.49 1090.32,-41.53"/>
</g>
<!-- MCQFactory -->
<g id="node17" class="node">
<title>MCQFactory</title>
<polygon fill="#f8f8f8" stroke="#333333" points="749,-246.5 749,-312.5 924,-312.5 924,-246.5 749,-246.5"/>
<text text-anchor="middle" x="836.5" y="-301.3" font-family="Arial" font-size="9.00">MCQFactory</text>
<polyline fill="none" stroke="#333333" points="749,-294.5 924,-294.5 "/>
<text text-anchor="start" x="757" y="-283.3" font-family="Arial" font-size="9.00">&#45; source: QuestionSource</text>
<text text-anchor="start" x="757" y="-273.3" font-family="Arial" font-size="9.00">+ createQuestion(): Question</text>
<text text-anchor="start" x="757" y="-263.3" font-family="Arial" font-size="9.00">+ createRenderer(): QuestionRenderer</text>
<text text-anchor="start" x="757" y="-253.3" font-family="Arial" font-size="9.00">+ createEvaluator(): QuestionEvaluator</text>
</g>
<!-- MCQFactory&#45;&gt;QuestionFactory -->
<g id="edge13" class="edge">
<title>MCQFactory&#45;&gt;QuestionFactory</title>
<path fill="none" stroke="#333333" stroke-dasharray="5,2" d="M924.26,-270.7C970.57,-263.95 1027.22,-251.38 1073.5,-228 1090.97,-219.18 1107.66,-205.81 1121.49,-192.83"/>
<polygon fill="none" stroke="#333333" points="1124.12,-195.16 1128.87,-185.69 1119.25,-190.13 1124.12,-195.16"/>
</g>
<!-- MCQFactory&#45;&gt;MCQQuestion -->
<g id="edge17" class="edge">
<title>MCQFactory&#45;&gt;MCQQuestion</title>
<path fill="none" stroke="#333333" stroke-dasharray="5,2" d="M878.22,-246.31C896.18,-232.45 917.54,-215.97 937.25,-200.76"/>
<polygon fill="#333333" stroke="#333333" points="939.5,-203.44 945.28,-194.56 935.23,-197.9 939.5,-203.44"/>
<text text-anchor="middle" x="945" y="-221.6" font-family="Arial" font-size="8.00">creates via source</text>
</g>
<!-- MCQFactory&#45;&gt;MCQRenderer -->
<g id="edge18" class="edge">
<title>MCQFactory&#45;&gt;MCQRenderer</title>
<path fill="none" stroke="#333333" stroke-dasharray="5,2" d="M775.38,-246.35C752.24,-235.69 725.26,-225.02 699.5,-219 542.21,-182.23 491.87,-245.19 336.5,-201 317.71,-195.66 298.52,-185.59 283.05,-176.09"/>
<polygon fill="#333333" stroke="#333333" points="284.72,-173.01 274.4,-170.61 280.97,-178.92 284.72,-173.01"/>
<text text-anchor="middle" x="740" y="-221.6" font-family="Arial" font-size="8.00">creates</text>
</g>
<!-- MCQFactory&#45;&gt;MCQEvaluator -->
<g id="edge19" class="edge">
<title>MCQFactory&#45;&gt;MCQEvaluator</title>
<path fill="none" stroke="#333333" stroke-dasharray="5,2" d="M831.61,-246.31C828.51,-225.92 824.55,-199.86 821.61,-180.55"/>
<polygon fill="#333333" stroke="#333333" points="825.06,-179.95 820.1,-170.59 818.14,-181 825.06,-179.95"/>
<text text-anchor="middle" x="842" y="-221.6" font-family="Arial" font-size="8.00">creates</text>
</g>
<!-- TrueFalseFactory -->
<g id="node18" class="node">
<title>TrueFalseFactory</title>
<polygon fill="#f8f8f8" stroke="#333333" points="1724,-246.5 1724,-312.5 1899,-312.5 1899,-246.5 1724,-246.5"/>
<text text-anchor="middle" x="1811.5" y="-301.3" font-family="Arial" font-size="9.00">TrueFalseFactory</text>
<polyline fill="none" stroke="#333333" points="1724,-294.5 1899,-294.5 "/>
<text text-anchor="start" x="1732" y="-283.3" font-family="Arial" font-size="9.00">&#45; source: QuestionSource</text>
<text text-anchor="start" x="1732" y="-273.3" font-family="Arial" font-size="9.00">+ createQuestion(): Question</text>
<text text-anchor="start" x="1732" y="-263.3" font-family="Arial" font-size="9.00">+ createRenderer(): QuestionRenderer</text>
<text text-anchor="start" x="1732" y="-253.3" font-family="Arial" font-size="9.00">+ createEvaluator(): QuestionEvaluator</text>
</g>
<!-- TrueFalseFactory&#45;&gt;QuestionFactory -->
<g id="edge14" class="edge">
<title>TrueFalseFactory&#45;&gt;QuestionFactory</title>
<path fill="none" stroke="#333333" stroke-dasharray="5,2" d="M1723.6,-265.17C1640.63,-252.72 1512.71,-233.88 1401.5,-219 1336.26,-210.27 1317.6,-219.73 1254.5,-201 1244.49,-198.03 1234.24,-194.1 1224.33,-189.77"/>
<polygon fill="none" stroke="#333333" points="1225.51,-186.46 1214.96,-185.52 1222.62,-192.84 1225.51,-186.46"/>
</g>
<!-- TrueFalseFactory&#45;&gt;TrueFalseQuestion -->
<g id="edge20" class="edge">
<title>TrueFalseFactory&#45;&gt;TrueFalseQuestion</title>
<path fill="none" stroke="#333333" stroke-dasharray="5,2" d="M1899.23,-270.81C1965.58,-263.58 2058.43,-250.43 2137.5,-228 2167.2,-219.57 2174.81,-216.51 2201.5,-201 2201.59,-200.95 2201.68,-200.89 2201.77,-200.84"/>
<polygon fill="#333333" stroke="#333333" points="2203.65,-203.8 2210.32,-195.57 2199.97,-197.84 2203.65,-203.8"/>
<text text-anchor="middle" x="2197" y="-221.6" font-family="Arial" font-size="8.00">creates via source</text>
</g>
<!-- TrueFalseFactory&#45;&gt;TrueFalseRenderer -->
<g id="edge21" class="edge">
<title>TrueFalseFactory&#45;&gt;TrueFalseRenderer</title>
<path fill="none" stroke="#333333" stroke-dasharray="5,2" d="M1795.79,-246.31C1785.7,-225.64 1772.77,-199.14 1763.31,-179.75"/>
<polygon fill="#333333" stroke="#333333" points="1766.37,-178.04 1758.84,-170.59 1760.08,-181.11 1766.37,-178.04"/>
<text text-anchor="middle" x="1799" y="-221.6" font-family="Arial" font-size="8.00">creates</text>
</g>
<!-- TrueFalseFactory&#45;&gt;TrueFalseEvaluator -->
<g id="edge22" class="edge">
<title>TrueFalseFactory&#45;&gt;TrueFalseEvaluator</title>
<path fill="none" stroke="#333333" stroke-dasharray="5,2" d="M1848.58,-246.31C1873.37,-224.79 1905.45,-196.95 1927.97,-177.39"/>
<polygon fill="#333333" stroke="#333333" points="1930.55,-179.79 1935.81,-170.59 1925.96,-174.5 1930.55,-179.79"/>
<text text-anchor="middle" x="1892" y="-221.6" font-family="Arial" font-size="8.00">creates</text>
</g>
<!-- EssayFactory -->
<g id="node19" class="node">
<title>EssayFactory</title>
<polygon fill="#f8f8f8" stroke="#333333" points="537,-246.5 537,-312.5 712,-312.5 712,-246.5 537,-246.5"/>
<text text-anchor="middle" x="624.5" y="-301.3" font-family="Arial" font-size="9.00">EssayFactory</text>
<polyline fill="none" stroke="#333333" points="537,-294.5 712,-294.5 "/>
<text text-anchor="start" x="545" y="-283.3" font-family="Arial" font-size="9.00">&#45; source: QuestionSource</text>
<text text-anchor="start" x="545" y="-273.3" font-family="Arial" font-size="9.00">+ createQuestion(): Question</text>
<text text-anchor="start" x="545" y="-263.3" font-family="Arial" font-size="9.00">+ createRenderer(): QuestionRenderer</text>
<text text-anchor="start" x="545" y="-253.3" font-family="Arial" font-size="9.00">+ createEvaluator(): QuestionEvaluator</text>
</g>
<!-- EssayFactory&#45;&gt;QuestionFactory -->
<g id="edge15" class="edge">
<title>EssayFactory&#45;&gt;QuestionFactory</title>
<path fill="none" stroke="#333333" stroke-dasharray="5,2" d="M712.12,-251.98C721.64,-249.69 731.23,-247.63 740.5,-246 846.29,-227.42 876.27,-249.54 981.5,-228 1017.85,-220.56 1026.21,-215.19 1060.5,-201 1068.77,-197.58 1077.33,-193.78 1085.78,-189.87"/>
<polygon fill="none" stroke="#333333" points="1087.33,-193.01 1094.89,-185.59 1084.35,-186.67 1087.33,-193.01"/>
</g>
<!-- EssayFactory&#45;&gt;EssayQuestion -->
<g id="edge23" class="edge">
<title>EssayFactory&#45;&gt;EssayQuestion</title>
<path fill="none" stroke="#333333" stroke-dasharray="5,2" d="M627.59,-246.31C628.63,-235.46 629.83,-223 631,-210.81"/>
<polygon fill="#333333" stroke="#333333" points="634.5,-210.96 631.97,-200.67 627.53,-210.29 634.5,-210.96"/>
<text text-anchor="middle" x="663" y="-221.6" font-family="Arial" font-size="8.00">creates via source</text>
</g>
<!-- EssayFactory&#45;&gt;EssayRenderer -->
<g id="edge24" class="edge">
<title>EssayFactory&#45;&gt;EssayRenderer</title>
<path fill="none" stroke="#333333" stroke-dasharray="5,2" d="M536.94,-272.61C442.55,-264.25 288.98,-244.77 163.5,-201 145.59,-194.75 127.02,-184.98 111.74,-175.91"/>
<polygon fill="#333333" stroke="#333333" points="113.51,-172.89 103.15,-170.69 109.87,-178.87 113.51,-172.89"/>
<text text-anchor="middle" x="263" y="-221.6" font-family="Arial" font-size="8.00">creates</text>
</g>
<!-- EssayFactory&#45;&gt;EssayEvaluator -->
<g id="edge25" class="edge">
<title>EssayFactory&#45;&gt;EssayEvaluator</title>
<path fill="none" stroke="#333333" stroke-dasharray="5,2" d="M580.98,-246.31C551.5,-224.51 513.25,-196.22 486.77,-176.63"/>
<polygon fill="#333333" stroke="#333333" points="488.73,-173.72 478.61,-170.59 484.57,-179.35 488.73,-173.72"/>
<text text-anchor="middle" x="569" y="-221.6" font-family="Arial" font-size="8.00">creates</text>
</g>
<!-- ProgrammingFactory -->
<g id="node20" class="node">
<title>ProgrammingFactory</title>
<polygon fill="#f8f8f8" stroke="#333333" points="1339,-246.5 1339,-312.5 1514,-312.5 1514,-246.5 1339,-246.5"/>
<text text-anchor="middle" x="1426.5" y="-301.3" font-family="Arial" font-size="9.00">ProgrammingFactory</text>
<polyline fill="none" stroke="#333333" points="1339,-294.5 1514,-294.5 "/>
<text text-anchor="start" x="1347" y="-283.3" font-family="Arial" font-size="9.00">&#45; source: QuestionSource</text>
<text text-anchor="start" x="1347" y="-273.3" font-family="Arial" font-size="9.00">+ createQuestion(): Question</text>
<text text-anchor="start" x="1347" y="-263.3" font-family="Arial" font-size="9.00">+ createRenderer(): QuestionRenderer</text>
<text text-anchor="start" x="1347" y="-253.3" font-family="Arial" font-size="9.00">+ createEvaluator(): QuestionEvaluator</text>
</g>
<!-- ProgrammingFactory&#45;&gt;QuestionFactory -->
<g id="edge16" class="edge">
<title>ProgrammingFactory&#45;&gt;QuestionFactory</title>
<path fill="none" stroke="#333333" stroke-dasharray="5,2" d="M1353.87,-246.39C1323.12,-232.64 1286.96,-216.25 1254.5,-201 1247,-197.47 1239.2,-193.75 1231.42,-190"/>
<polygon fill="none" stroke="#333333" points="1232.85,-186.8 1222.32,-185.6 1229.8,-193.11 1232.85,-186.8"/>
</g>
<!-- ProgrammingFactory&#45;&gt;ProgrammingQuestion -->
<g id="edge26" class="edge">
<title>ProgrammingFactory&#45;&gt;ProgrammingQuestion</title>
<path fill="none" stroke="#333333" stroke-dasharray="5,2" d="M1514.03,-268.21C1571.32,-261.58 1647.82,-252.94 1715.5,-246 1872.18,-229.92 1924.5,-262.83 2073.29,-201.04"/>
<polygon fill="#333333" stroke="#333333" points="2074.91,-204.16 2082.76,-197.04 2072.19,-197.71 2074.91,-204.16"/>
<text text-anchor="middle" x="2057" y="-221.6" font-family="Arial" font-size="8.00">creates via source</text>
</g>
<!-- ProgrammingFactory&#45;&gt;ProgrammingRenderer -->
<g id="edge27" class="edge">
<title>ProgrammingFactory&#45;&gt;ProgrammingRenderer</title>
<path fill="none" stroke="#333333" stroke-dasharray="5,2" d="M1404.35,-246.31C1389.94,-225.36 1371.4,-198.41 1358.01,-178.96"/>
<polygon fill="#333333" stroke="#333333" points="1360.81,-176.85 1352.26,-170.59 1355.04,-180.81 1360.81,-176.85"/>
<text text-anchor="middle" x="1404" y="-221.6" font-family="Arial" font-size="8.00">creates</text>
</g>
<!-- ProgrammingFactory&#45;&gt;ProgrammingEvaluator -->
<g id="edge28" class="edge">
<title>ProgrammingFactory&#45;&gt;ProgrammingEvaluator</title>
<path fill="none" stroke="#333333" stroke-dasharray="5,2" d="M1457.15,-246.31C1477.45,-224.98 1503.67,-197.44 1522.26,-177.91"/>
<polygon fill="#333333" stroke="#333333" points="1524.87,-180.25 1529.23,-170.59 1519.8,-175.42 1524.87,-180.25"/>
<text text-anchor="middle" x="1495" y="-221.6" font-family="Arial" font-size="8.00">creates</text>
</g>
</g>
</svg>
