<?xml version="1.0" encoding="UTF-8" standalone="no"?>
<!DOCTYPE svg PUBLIC "-//W3C//DTD SVG 1.1//EN"
 "http://www.w3.org/Graphics/SVG/1.1/DTD/svg11.dtd">
<!-- Generated by graphviz version 2.42.4 (0)
 -->
<!-- Title: PartA Pages: 1 -->
<svg width="488pt" height="271pt"
 viewBox="0.00 0.00 488.00 271.00" xmlns="http://www.w3.org/2000/svg" xmlns:xlink="http://www.w3.org/1999/xlink">
<g id="graph0" class="graph" transform="scale(1 1) rotate(0) translate(4 267)">
<title>PartA</title>
<polygon fill="white" stroke="transparent" points="-4,4 -4,-267 484,-267 484,4 -4,4"/>
<text text-anchor="middle" x="240" y="-243" font-family="Arial" font-size="20.00">Part A &#45; Factory Method Pattern</text>
<!-- Exam -->
<g id="node1" class="node">
<title>Exam</title>
<polygon fill="#f8f8f8" stroke="#333333" points="256,-0.5 256,-60.5 359,-60.5 359,-0.5 256,-0.5"/>
<text text-anchor="middle" x="307.5" y="-48.5" font-family="Arial" font-size="10.00">&lt;&lt;interface&gt;&gt;</text>
<text text-anchor="middle" x="307.5" y="-37.5" font-family="Arial" font-size="10.00">Exam</text>
<polyline fill="none" stroke="#333333" points="256,-30.5 359,-30.5 "/>
<text text-anchor="start" x="264" y="-18.5" font-family="Arial" font-size="10.00">+ getType(): String</text>
<text text-anchor="start" x="264" y="-7.5" font-family="Arial" font-size="10.00">+ displayInfo(): void</text>
</g>
<!-- ExamFactory -->
<g id="node2" class="node">
<title>ExamFactory</title>
<polygon fill="#f8f8f8" stroke="#333333" points="121.5,-98.5 121.5,-147.5 237.5,-147.5 237.5,-98.5 121.5,-98.5"/>
<text text-anchor="middle" x="179.5" y="-135.5" font-family="Arial" font-size="10.00">&lt;&lt;abstract&gt;&gt;</text>
<text text-anchor="middle" x="179.5" y="-124.5" font-family="Arial" font-size="10.00">ExamFactory</text>
<polyline fill="none" stroke="#333333" points="121.5,-117.5 237.5,-117.5 "/>
<text text-anchor="start" x="129.5" y="-105.5" font-family="Arial" font-size="10.00">+ createExam(): Exam</text>
</g>
<!-- PracticeQuiz -->
<g id="node3" class="node">
<title>PracticeQuiz</title>
<polygon fill="#f8f8f8" stroke="#333333" points="0,-98.5 0,-147.5 103,-147.5 103,-98.5 0,-98.5"/>
<text text-anchor="middle" x="51.5" y="-135.5" font-family="Arial" font-size="10.00">PracticeQuiz</text>
<polyline fill="none" stroke="#333333" points="0,-128.5 103,-128.5 "/>
<text text-anchor="start" x="8" y="-116.5" font-family="Arial" font-size="10.00">+ getType(): String</text>
<text text-anchor="start" x="8" y="-105.5" font-family="Arial" font-size="10.00">+ displayInfo(): void</text>
</g>
<!-- PracticeQuiz&#45;&gt;Exam -->
<g id="edge1" class="edge">
<title>PracticeQuiz&#45;&gt;Exam</title>
<path fill="none" stroke="#333333" stroke-dasharray="5,2" d="M103.02,-101.54C106.22,-100.32 109.4,-99.14 112.5,-98 157.08,-81.64 207.86,-64.37 246.42,-51.52"/>
<polygon fill="none" stroke="#333333" points="247.56,-54.83 255.95,-48.36 245.36,-48.19 247.56,-54.83"/>
</g>
<!-- MidtermExam -->
<g id="node4" class="node">
<title>MidtermExam</title>
<polygon fill="#f8f8f8" stroke="#333333" points="377,-98.5 377,-147.5 480,-147.5 480,-98.5 377,-98.5"/>
<text text-anchor="middle" x="428.5" y="-135.5" font-family="Arial" font-size="10.00">MidtermExam</text>
<polyline fill="none" stroke="#333333" points="377,-128.5 480,-128.5 "/>
<text text-anchor="start" x="385" y="-116.5" font-family="Arial" font-size="10.00">+ getType(): String</text>
<text text-anchor="start" x="385" y="-105.5" font-family="Arial" font-size="10.00">+ displayInfo(): void</text>
</g>
<!-- MidtermExam&#45;&gt;Exam -->
<g id="edge2" class="edge">
<title>MidtermExam&#45;&gt;Exam</title>
<path fill="none" stroke="#333333" stroke-dasharray="5,2" d="M397.02,-98.46C384.15,-88.83 368.97,-77.48 354.81,-66.88"/>
<polygon fill="none" stroke="#333333" points="356.71,-63.94 346.61,-60.75 352.52,-69.54 356.71,-63.94"/>
</g>
<!-- FinalExam -->
<g id="node5" class="node">
<title>FinalExam</title>
<polygon fill="#f8f8f8" stroke="#333333" points="256,-98.5 256,-147.5 359,-147.5 359,-98.5 256,-98.5"/>
<text text-anchor="middle" x="307.5" y="-135.5" font-family="Arial" font-size="10.00">FinalExam</text>
<polyline fill="none" stroke="#333333" points="256,-128.5 359,-128.5 "/>
<text text-anchor="start" x="264" y="-116.5" font-family="Arial" font-size="10.00">+ getType(): String</text>
<text text-anchor="start" x="264" y="-105.5" font-family="Arial" font-size="10.00">+ displayInfo(): void</text>
</g>
<!-- FinalExam&#45;&gt;Exam -->
<g id="edge3" class="edge">
<title>FinalExam&#45;&gt;Exam</title>
<path fill="none" stroke="#333333" stroke-dasharray="5,2" d="M307.5,-98.22C307.5,-89.85 307.5,-80.2 307.5,-70.89"/>
<polygon fill="none" stroke="#333333" points="311,-70.61 307.5,-60.61 304,-70.61 311,-70.61"/>
</g>
<!-- PracticeQuizFactory -->
<g id="node6" class="node">
<title>PracticeQuizFactory</title>
<polygon fill="#f8f8f8" stroke="#333333" points="40.5,-194.5 40.5,-232.5 156.5,-232.5 156.5,-194.5 40.5,-194.5"/>
<text text-anchor="middle" x="98.5" y="-220.5" font-family="Arial" font-size="10.00">PracticeQuizFactory</text>
<polyline fill="none" stroke="#333333" points="40.5,-213.5 156.5,-213.5 "/>
<text text-anchor="start" x="48.5" y="-201.5" font-family="Arial" font-size="10.00">+ createExam(): Exam</text>
</g>
<!-- PracticeQuizFactory&#45;&gt;ExamFactory -->
<g id="edge4" class="edge">
<title>PracticeQuizFactory&#45;&gt;ExamFactory</title>
<path fill="none" stroke="#333333" d="M115.28,-194.16C125.59,-182.9 139.05,-168.19 150.99,-155.15"/>
<polygon fill="none" stroke="#333333" points="153.64,-157.44 157.81,-147.7 148.47,-152.71 153.64,-157.44"/>
</g>
<!-- PracticeQuizFactory&#45;&gt;PracticeQuiz -->
<g id="edge7" class="edge">
<title>PracticeQuizFactory&#45;&gt;PracticeQuiz</title>
<path fill="none" stroke="#333333" stroke-dasharray="5,2" d="M88.76,-194.16C83.01,-183.33 75.55,-169.29 68.82,-156.62"/>
<polygon fill="#333333" stroke="#333333" points="71.87,-154.89 64.09,-147.7 65.69,-158.17 71.87,-154.89"/>
<text text-anchor="middle" x="94" y="-168.8" font-family="Arial" font-size="9.00">creates</text>
</g>
<!-- MidtermExamFactory -->
<g id="node7" class="node">
<title>MidtermExamFactory</title>
<polygon fill="#f8f8f8" stroke="#333333" points="323.5,-194.5 323.5,-232.5 439.5,-232.5 439.5,-194.5 323.5,-194.5"/>
<text text-anchor="middle" x="381.5" y="-220.5" font-family="Arial" font-size="10.00">MidtermExamFactory</text>
<polyline fill="none" stroke="#333333" points="323.5,-213.5 439.5,-213.5 "/>
<text text-anchor="start" x="331.5" y="-201.5" font-family="Arial" font-size="10.00">+ createExam(): Exam</text>
</g>
<!-- MidtermExamFactory&#45;&gt;ExamFactory -->
<g id="edge5" class="edge">
<title>MidtermExamFactory&#45;&gt;ExamFactory</title>
<path fill="none" stroke="#333333" d="M357.92,-194.42C344.59,-184.89 327.26,-173.63 310.5,-166 286.13,-154.91 276.49,-156.52 247.26,-148.04"/>
<polygon fill="none" stroke="#333333" points="248.11,-144.64 237.52,-145.06 246.06,-151.34 248.11,-144.64"/>
</g>
<!-- MidtermExamFactory&#45;&gt;MidtermExam -->
<g id="edge8" class="edge">
<title>MidtermExamFactory&#45;&gt;MidtermExam</title>
<path fill="none" stroke="#333333" stroke-dasharray="5,2" d="M391.24,-194.16C396.99,-183.33 404.45,-169.29 411.18,-156.62"/>
<polygon fill="#333333" stroke="#333333" points="414.31,-158.17 415.91,-147.7 408.13,-154.89 414.31,-158.17"/>
<text text-anchor="middle" x="420" y="-168.8" font-family="Arial" font-size="9.00">creates</text>
</g>
<!-- FinalExamFactory -->
<g id="node8" class="node">
<title>FinalExamFactory</title>
<polygon fill="#f8f8f8" stroke="#333333" points="184.5,-194.5 184.5,-232.5 300.5,-232.5 300.5,-194.5 184.5,-194.5"/>
<text text-anchor="middle" x="242.5" y="-220.5" font-family="Arial" font-size="10.00">FinalExamFactory</text>
<polyline fill="none" stroke="#333333" points="184.5,-213.5 300.5,-213.5 "/>
<text text-anchor="start" x="192.5" y="-201.5" font-family="Arial" font-size="10.00">+ createExam(): Exam</text>
</g>
<!-- FinalExamFactory&#45;&gt;ExamFactory -->
<g id="edge6" class="edge">
<title>FinalExamFactory&#45;&gt;ExamFactory</title>
<path fill="none" stroke="#333333" d="M229.45,-194.16C221.58,-183.12 211.35,-168.74 202.2,-155.88"/>
<polygon fill="none" stroke="#333333" points="205.02,-153.82 196.37,-147.7 199.32,-157.88 205.02,-153.82"/>
</g>
<!-- FinalExamFactory&#45;&gt;FinalExam -->
<g id="edge9" class="edge">
<title>FinalExamFactory&#45;&gt;FinalExam</title>
<path fill="none" stroke="#333333" stroke-dasharray="5,2" d="M255.97,-194.16C264.08,-183.12 274.64,-168.74 284.08,-155.88"/>
<polygon fill="#333333" stroke="#333333" points="286.99,-157.83 290.09,-147.7 281.35,-153.69 286.99,-157.83"/>
<text text-anchor="middle" x="291" y="-168.8" font-family="Arial" font-size="9.00">creates</text>
</g>
</g>
</svg>
